HIERARCHY
ROOT Hips
{
	OFFSET -0.467049 105.791939 -1.111724
	CHANNELS 6 Xposition Yposition Zposition Xrotation Yrotation Zrotation
	JOINT Chest
	{
		OFFSET 0.235366 13.506577 1.916019
		CHANNELS 3 Xrotation Yrotation Zrotation
		JOINT Chest2
		{
			OFFSET -0.800438 21.205803 2.956319
			CHANNELS 3 Xrotation Yrotation Zrotation
			JOINT Chest3
			{
				OFFSET -0.614271 14.906555 -0.486936
				CHANNELS 3 Xrotation Yrotation Zrotation
				JOINT Neck
				{
					OFFSET 0.264287 17.187958 1.766369
					CHANNELS 3 Xrotation Yrotation Zrotation
					JOINT Head
					{
						OFFSET -0.390968 10.388763 1.322231
						CHANNELS 3 Xrotation Yrotation Zrotation
						End Site
						{
							OFFSET -0.386798 10.397873 1.249843
						}
					}
				}
				JOINT LeftCollar
				{
					OFFSET 4.522113 12.844009 4.047986
					CHANNELS 3 Xrotation Yrotation Zrotation
					JOINT LeftUpArm
					{
						OFFSET 14.331318 -5.129730 -8.763488
						CHANNELS 3 Xrotation Yrotation Zrotation
						JOINT LeftLowArm
						{
							OFFSET 4.029346 -33.512253 -0.649513
							CHANNELS 3 Xrotation Yrotation Zrotation
							JOINT LeftHand
							{
								OFFSET -0.560614 -28.386902 9.737396
								CHANNELS 3 Xrotation Yrotation Zrotation
								End Site
								{
									OFFSET -0.122522 -6.204124 2.128164
								}
							}
						}
					}
				}
				JOINT RightCollar
				{
					OFFSET -3.886811 12.937820 4.394781
					CHANNELS 3 Xrotation Yrotation Zrotation
					JOINT RightUpArm
					{
						OFFSET -14.494861 -5.544617 -8.225120
						CHANNELS 3 Xrotation Yrotation Zrotation
						JOINT RightLowArm
						{
							OFFSET -4.985720 -33.340302 -1.817064
							CHANNELS 3 Xrotation Yrotation Zrotation
							JOINT RightHand
							{
								OFFSET 1.864403 -28.289932 9.856913
								CHANNELS 3 Xrotation Yrotation Zrotation
								End Site
								{
									OFFSET 0.407478 -6.183044 2.154328
								}
							}
						}
					}
				}
			}
		}
	}
	JOINT LeftUpLeg
	{
		OFFSET 10.013950 -0.217850 0.304099
		CHANNELS 3 Xrotation Yrotation Zrotation
		JOINT LeftLowLeg
		{
			OFFSET 5.071339 -46.842358 -4.905504
			CHANNELS 3 Xrotation Yrotation Zrotation
			JOINT LeftFoot
			{
				OFFSET 1.948515 -42.540680 -13.677048
				CHANNELS 3 Xrotation Yrotation Zrotation
				JOINT LeftToe
				{
					OFFSET 1.829199 -16.769434 16.583115
					CHANNELS 3 Xrotation Yrotation Zrotation
					End Site
					{
						OFFSET 2.320210 -2.373213 23.421001
					}
				}
			}
		}
	}
	JOINT RightUpLeg
	{
		OFFSET -10.013958 0.217659 -0.304127
		CHANNELS 3 Xrotation Yrotation Zrotation
		JOINT RightLowLeg
		{
			OFFSET -1.589321 -47.081074 -4.985963
			CHANNELS 3 Xrotation Yrotation Zrotation
			JOINT RightFoot
			{
				OFFSET 1.397906 -42.286896 -14.506729
				CHANNELS 3 Xrotation Yrotation Zrotation
				JOINT RightToe
				{
					OFFSET -3.906489 -18.225494 14.564606
					CHANNELS 3 Xrotation Yrotation Zrotation
					End Site
					{
						OFFSET -7.065552 -4.540496 22.113752
					}
				}
			}
		}
	}
}
MOTION
Frames: 14
Frame Time: 0.033333
56.906902 84.398865 -4.488816 70.617073 -63.074038 72.610962 36.118037 0.099563 6.967671 -11.028793 1.190464 -3.003554 -7.882215 -0.651182 -1.041232 -45.385839 1.676825 0.985532 0.000001 -0.000000 -0.000001 -3.296483 7.366035 10.735577 9.560238 13.838240 22.666165 29.573619 19.612017 17.887328 -0.000000 -0.000003 0.000002 -5.819115 -9.274872 -15.479994 14.848898 -21.595231 -16.087162 35.541262 -25.521366 -25.898868 -0.000001 -0.000002 -0.000000 -70.884427 -7.553937 1.499000 47.382443 -15.902227 -34.962796 -33.199234 38.226052 38.403726 -0.000001 0.000005 0.000000 -69.195362 19.992797 -16.181307 -4.943778 7.902809 -5.594023 3.089249 -28.510849 -6.349127 0.000001 0.000002 -0.000001 
56.877480 84.467522 -4.572697 69.870656 -63.585516 72.269528 35.875067 0.125785 7.128817 -10.539260 2.042966 -4.055658 -7.898620 -1.708785 -0.409315 -45.029211 2.188987 0.811833 0.000001 -0.000001 -0.000001 -3.398159 7.416592 10.503308 9.551745 14.217659 22.346868 27.963524 20.033187 18.885833 0.000000 0.000001 -0.000000 -5.956635 -9.341069 -15.582551 14.853961 -22.002093 -16.643337 34.568223 -25.732297 -26.004724 0.000002 0.000001 -0.000001 -69.709812 -7.389289 1.476642 46.791048 -15.740946 -35.033242 -33.110793 38.090845 38.240969 0.000000 0.000004 0.000000 -68.466984 19.677999 -16.079327 -4.765630 8.170391 -6.215425 3.410053 -27.733025 -5.964016 -0.000002 0.000002 -0.000000 
56.798615 84.607536 -4.657419 69.324658 -64.081450 71.250921 35.099468 0.201652 7.645324 -9.953105 2.457692 -4.501520 -7.914698 -1.507430 -0.154839 -44.053883 2.895779 0.558944 0.000001 -0.000000 0.000001 -3.562537 7.159387 10.259790 9.686900 14.531683 21.841490 27.652132 20.583262 19.276252 -0.000003 -0.000005 0.000001 -6.161618 -9.388021 -15.669907 14.902776 -22.345381 -16.572942 34.881619 -26.383513 -26.129720 -0.000001 -0.000003 -0.000003 -67.850327 -7.188065 1.452054 46.052031 -15.300355 -34.008717 -32.566765 37.079714 37.076022 -0.000000 0.000002 0.000000 -67.386496 18.982385 -15.626670 -5.197259 8.316292 -6.337710 4.345437 -27.017293 -5.234577 0.000000 0.000001 0.000000 
56.662426 84.837234 -4.750789 66.449162 -64.571625 68.255098 34.250598 0.181782 7.592548 -9.546712 2.262806 -4.153857 -7.557854 -1.478235 -0.650307 -43.277936 2.713986 0.389090 0.000001 -0.000000 0.000000 -3.774596 7.298907 10.360224 10.027231 14.566019 21.038005 26.987170 20.845676 20.196019 0.000000 -0.000003 0.000002 -6.363611 -9.928763 -15.954501 15.153823 -22.153502 -16.581182 33.915250 -25.798236 -26.014708 -0.000002 -0.000000 -0.000000 -65.594152 -6.368571 0.679393 45.940187 -14.683638 -31.444483 -31.683714 35.738613 35.492627 -0.000000 0.000007 0.000001 -65.678614 18.190230 -15.219770 -5.498221 8.370619 -6.937398 5.101572 -25.328233 -4.500080 -0.000003 0.000002 -0.000001 
56.493111 85.107574 -4.839046 64.105847 -64.829642 66.176467 33.359535 0.015200 6.644729 -9.131172 1.210611 -2.874120 -7.531113 -0.830263 -1.460031 -42.586872 2.381507 0.434690 0.000001 -0.000000 0.000000 -3.821094 7.869672 10.358064 10.270333 14.710207 20.465827 25.891331 20.842457 21.440725 0.000003 -0.000002 0.000002 -6.332570 -10.473807 -15.754099 15.142746 -21.941706 -16.224850 33.586864 -25.796708 -26.947016 0.000001 -0.000001 -0.000002 -63.857290 -5.707310 0.207260 45.632702 -14.355362 -30.055988 -30.750215 34.651568 33.885583 -0.000000 0.000004 0.000000 -64.318901 17.915048 -15.400383 -5.651954 8.419541 -6.821918 5.599556 -24.463911 -4.046715 -0.000003 0.000005 0.000001 
56.219822 85.500031 -4.928597 59.484725 -64.969504 61.580869 32.126515 -0.111462 5.723388 -8.760089 0.169260 -1.539813 -7.184916 -0.579941 -2.327133 -41.257467 2.328176 0.242766 0.000001 0.000000 0.000001 -3.722824 7.905685 10.805953 10.107659 14.075167 20.529027 25.534276 20.154509 21.492082 -0.000003 -0.000003 -0.000002 -6.268231 -11.197992 -16.207971 15.444429 -21.573328 -16.199967 32.886159 -24.418918 -26.607876 -0.000001 0.000005 -0.000001 -60.974820 -4.557509 -0.898384 45.375658 -13.382939 -26.987252 -29.285102 32.784170 31.527559 -0.000000 -0.000002 -0.000000 -62.039763 17.443516 -15.739068 -5.700342 8.095991 -6.741033 6.712629 -23.150522 -3.555028 0.000002 0.000004 0.000000 
55.802635 86.014359 -5.014850 55.170679 -65.031140 56.169847 30.162689 -0.170475 5.377053 -8.242180 -0.965774 -0.124300 -6.624884 0.327301 -3.460786 -39.138121 1.770596 -0.081842 0.000001 -0.000000 0.000000 -3.865494 7.875511 11.729073 10.925993 14.463844 19.620724 24.079267 19.578261 21.908382 0.000002 -0.000002 0.000002 -6.584108 -12.121791 -17.037804 16.809058 -22.180826 -16.240926 29.200595 -22.097627 -25.629006 0.000002 0.000003 -0.000002 -57.243324 -4.008462 -1.246452 44.410177 -12.034330 -23.596869 -27.426097 30.664151 28.809963 -0.000000 0.000001 -0.000000 -59.977783 16.585576 -15.457326 -4.972081 7.480461 -6.037020 7.533501 -21.985763 -3.274006 -0.000002 0.000000 0.000000 
55.303219 86.571945 -5.080429 51.231026 -64.196641 51.350349 28.077612 -0.061875 6.886397 -7.573621 0.690930 -2.096490 -6.535980 -1.740728 -3.002878 -37.144693 0.824396 0.049096 0.000001 -0.000000 0.000000 -4.139859 8.828231 12.380138 11.736614 14.611064 18.394832 21.413193 18.693012 23.469367 0.000001 -0.000001 -0.000001 -6.838488 -13.491847 -17.404473 17.830561 -22.340697 -15.297739 26.233206 -20.386503 -26.146502 -0.000000 -0.000001 -0.000001 -54.495026 -3.349683 -1.922844 43.720956 -10.880281 -20.223958 -25.984628 28.364988 26.303615 0.000001 0.000001 0.000000 -58.471863 16.325696 -15.755240 -4.374223 7.070187 -5.152682 8.243051 -21.032181 -2.863242 0.000001 0.000000 0.000000 
54.601910 87.288925 -5.139163 46.442363 -63.114930 46.102547 25.763395 -0.083367 7.010024 -7.817045 0.285191 -1.561161 -6.257396 -2.168527 -4.123999 -34.161055 0.297175 0.071454 0.000001 0.000001 0.000000 -4.441825 9.491913 13.766654 13.037749 15.595579 16.688369 19.172857 17.532086 23.376343 -0.000004 0.000004 0.000001 -7.199956 -14.756617 -16.839138 18.425776 -22.504447 -13.740280 21.085386 -17.769000 -24.612281 -0.000001 -0.000002 -0.000001 -50.248206 -2.368120 -2.900059 41.359316 -9.740461 -16.462465 -24.664269 25.708122 23.713821 -0.000000 0.000004 0.000001 -55.732609 15.994158 -16.553057 -3.745277 6.855767 -4.429027 10.246763 -17.529414 -1.528818 0.000000 0.000000 0.000000 
53.683025 88.145325 -5.174971 41.029691 -61.458151 39.866202 22.617591 -0.224160 6.609090 -6.711298 0.317722 -1.696474 -6.413299 -2.760447 -4.062978 -30.567026 -0.419725 0.366086 0.000001 -0.000001 -0.000000 -3.875256 8.530411 15.142302 14.237659 16.261758 14.179820 20.421603 16.506708 21.006151 0.000001 -0.000000 -0.000000 -7.050128 -14.883346 -17.100422 18.534179 -21.685321 -11.854055 24.128519 -17.008004 -21.365025 -0.000002 0.000005 -0.000001 -45.256185 -1.710276 -3.155755 38.163026 -8.591042 -13.111029 -23.058495 22.022345 20.353923 0.000000 0.000003 0.000000 -52.075220 15.685130 -18.033858 -3.102633 6.136761 -2.827758 12.257228 -13.681506 -0.423647 -0.000004 0.000004 0.000002 
52.683384 89.032440 -5.199484 37.955833 -60.173680 35.747687 19.928504 -0.343305 6.471827 -5.962226 0.306580 -1.595181 -6.380594 -2.732715 -3.998427 -27.446849 -0.310924 0.363536 0.000000 0.000001 0.000000 -3.372807 9.188184 15.835599 14.197270 14.858168 12.866177 19.386751 14.870295 21.461955 -0.000000 0.000003 0.000005 -6.465365 -14.959166 -17.703123 18.467568 -19.922315 -10.680072 27.126914 -15.759208 -19.669121 0.000003 -0.000003 -0.000001 -41.289064 -1.733327 -2.600904 35.037709 -7.773738 -11.265359 -22.090664 20.016774 18.576352 0.000001 0.000003 0.000000 -48.795011 15.486756 -19.302463 -2.978339 5.501397 -1.178144 14.569589 -10.875963 0.458508 -0.000005 0.000002 -0.000001 
51.443256 90.033127 -5.213872 33.507822 -57.846662 29.853708 16.294963 -0.460706 7.251633 -4.261851 1.027539 -2.458888 -6.114702 -3.704225 -3.540036 -23.946309 0.644591 -0.222212 0.000001 0.000003 0.000000 -2.722742 7.608048 15.438382 12.861689 12.863937 12.771203 21.785279 14.218836 19.480155 -0.000001 -0.000006 0.000001 -5.842962 -13.821945 -17.303627 18.128924 -19.219889 -13.193252 27.451808 -13.261009 -15.294651 -0.000001 0.000003 -0.000003 -36.582770 -2.362079 -0.783223 30.879340 -6.944864 -9.912625 -20.335737 16.929566 15.600314 -0.000001 -0.000003 -0.000000 -45.013826 14.617737 -19.788221 -1.761006 5.271290 -0.532518 15.972708 -6.046888 1.593474 -0.000000 0.000002 0.000002 
49.963009 91.135483 -5.213631 27.354669 -54.391996 23.462514 13.767454 -0.570384 6.629970 -3.096027 0.656566 -1.981543 -5.663036 -4.406717 -3.886235 -20.343286 1.575558 -1.227792 0.000001 0.000002 0.000000 -1.999064 6.356415 14.457325 10.773019 10.562609 13.023519 23.337583 13.420277 17.810914 0.000002 0.000002 0.000002 -5.020771 -13.310666 -15.054002 17.540144 -18.048116 -13.043126 23.085302 -10.357566 -12.115722 0.000006 -0.000001 -0.000003 -30.861889 -2.198800 0.212548 26.346094 -5.998043 -7.501850 -17.770142 12.732910 11.623625 0.000001 0.000008 0.000000 -41.754377 13.028712 -18.930201 1.747161 5.519676 -2.190354 15.123422 1.741175 2.900246 -0.000000 0.000002 -0.000000 
48.431660 92.207596 -5.200496 23.239336 -51.645567 19.257387 12.032934 -0.647218 5.624193 -2.082157 0.334164 -1.517876 -5.933801 -4.419510 -3.867063 -17.678903 1.947348 -0.992506 0.000001 -0.000002 -0.000000 -1.205681 5.450692 13.977068 9.894079 9.304843 12.158965 24.833123 12.418476 16.293070 -0.000002 -0.000002 0.000001 -4.438167 -13.083797 -13.815478 18.161722 -17.893996 -11.772980 20.812985 -8.546352 -10.282725 -0.000001 -0.000004 -0.000001 -26.089216 -1.960737 1.141403 22.317436 -5.333011 -6.014881 -15.556750 8.829468 8.372836 -0.000001 -0.000004 -0.000000 -39.592086 11.621514 -17.769033 4.353629 5.605138 -3.831084 14.622028 7.552567 4.137109 0.000001 0.000002 -0.000000 
